<svg xmlns="http://www.w3.org/2000/svg" viewBox="0 0 599.17 152.29"><defs><style>.cls-1{fill:#222;}</style></defs><title>FCCLogoWhite</title><g id="Layer_2" data-name="Layer 2"><g id="Layer_1-2" data-name="Layer 1"><path class="cls-1" d="M146.41,100.35a7.81,7.81,0,0,0,1.45.62l-.2.57a1.09,1.09,0,0,0-.25-.06c-.08-.12-.31-.31,0-.32-.36,0-.66-.2-1-.2,0-.32-.55-.23-.6-.45S146.3,100.37,146.41,100.35ZM75.87,0A76.14,76.14,0,0,1,149,97.3c-.4-.65-2.19-.19-2.78-.06s-.09-.5-.6-.31c0-.19-.17-.34-.33-.45l.3-.17c-.07-.73-.94-.27-.15-1.17-.49-.25.47-.55-.25-.65,0-.67-1.27-.53-1.24-1.26-.47-.22-.73.38-1.1.44a1,1,0,0,0,0,.39,8.08,8.08,0,0,0,1.62,1.06c-.39,1.19-1.26-.32-2.05-.11-.23-.18.07-.3.05-.5-1,0-.15-.35.2-.39-.11,0-.39,0-.15-.15-.5,0-.64-.79-1.17-.67s-.3.78.13.84c-.17.54-1,0-.1,1.41-.31.31-1.1.32-1.1-.17.22-.22-.22-.54-.35-.74-.27-.45-1,.54-1.12,0a1.15,1.15,0,0,0-.62.46c.37.53-.49.35-.58.45-.09-.55-.43-1-.57-1.58-.07-.26,1.73-.48,2-.89.38-.14,0-.41,0-.62-.32-.06-.66,0-1-.09-.3.24-.53-.16-.82-.09-.15-.3-.64.3-.75.39a1.49,1.49,0,0,0-1.22-.21c-.37-.23-1.13,0-1.55,0-.28-.34-.27.28-.87.06,0,.28-.3.19-.17-.06-.37-.27.22-.22.15-.56s-.55-.37-.9-.59c-.4.13-.58-.32-1-.32-.09.07-.21.19-.17.3a.21.21,0,0,1-.28.09,6.83,6.83,0,0,0-.95.37c0,.44-.43-.21-.74-.05l.27.2c0,.21-.19.37-.3.56-.22-.3-.68-.3-.92-.61s0-.21.23-.17c0,0,.07-.25-.08-.2l-.2-.19a.8.8,0,0,1,.54-.14.34.34,0,0,1-.19-.16c.22-.22-.4,0-.37-.28-.32.3-.38-.22-.68-.15-.13.28-.45.44-.54.75-.24.08-.23.28-.26.46l-2.12.23a1,1,0,0,0,0-.78,17.94,17.94,0,0,0-2-.5c.29-.58.71-1.76.21-2.49-.64-1-1.61-.27-2.62-.12a2.8,2.8,0,0,0-2.16-2.22c-.51-.08-1,.42-1.18.69-.38-.35-.72-1.88-1.91-.81-.76-.92-1.39,0-1.85.66a1.36,1.36,0,0,0-2.2.19,1.89,1.89,0,0,0-1.44-.58c-.89.12-1.18,1.65-1.52,2.11.29.12.93.27,1.27.39-.21.15-.68,1.6-.3,1.87.55.31,1.73-.27,2.24,0l.12.14c-1.09.22-1.26,1.93-2.48,1.93a4.93,4.93,0,0,1-1-.11l-2.28-3,.1-.09L106,90c.23-.18.23-.59.61-.59-.15-.28-1.14-.9-.26-1.21,0-.55,1-.28.72-.9.23-.24.49-.34.38-.65-.46,0-1.41.14-1.56-.52-.38.69-1.37.31-1.83,1,0-.76-1.9-1.45-.26-2,0-.45.11-1-.46-1.32-1.29-.51-1.21,1.39-2.47.87l-.65.58c-.49-.31-.91.69-1.44.18-.5.69-1.3-.49-1.75.37-.27-.17-.46-.51-.91-.51a1.38,1.38,0,0,1,.3-1c.57.17,1.14.62,1.71.59.5-.93,2.47-.17,2.74-1.55.11-.59,1.33-.59,1.29-1.28a4,4,0,0,1-.11-1.31c-.53-.17-1,.62-1.64.34a.62.62,0,0,1-.45.18c-.38-.25-.31-.59-.46-.83-.72.48-1.6,1.1-2.55.65a18.58,18.58,0,0,1-2,1.25l-.19-.18c-.23.18-.61.76-1.07.42s-.91-.52-1-.93A12.94,12.94,0,0,0,95.81,80c.73.52,1.22-.69,1.83.07a.57.57,0,0,1,.72,0l-.19-.41c.91-.38,2.28-.63,3.39-1a2.47,2.47,0,0,0,.91-1.62c-.23,0-.61.17-.72-.17s.34-.56-.12-.8c-.45.07-.8.86-1.25.42-.69.2-1.3-.83-2-.31-.72.24-1.37-.73-1.63.24l-.38-.18c-.23.18.11.52-.27.63-.19-.38-.3-1.14-1-1-1.1.24-.72,1.62-1.83,1.79-.15.28,0,.87-.57.87-.83-.07-1.21.93-2.16.79.76-.72.87-2.07,2.09-2.41,0-.63,1.82-.87.53-1.38-.15-.35.27-.28.38-.52,1.26-.35,1.56,1,2.74.24.38-.35,0-.93.46-1.21.53-.69-.69-1.14,0-1.65-.27-.59.41-.59.53-1L97,70.19c-.45,0-1.18.62-1.37-.18v-.86l-.45.17c-.27-.24.15-.86-.38-.79a8.11,8.11,0,0,0-.61,1.41c-.31-.27-.53-.79-1-1,.27,1-1.14.66-1.18,1.45a1,1,0,0,1-1-.17c-.19.17-.34.62-.76.62a2.36,2.36,0,0,1,.19-2.62c.5-.14,1.26-.07,1.37-.59.15-.69-.49-.28-.8-.69l.35-.79c-.27-.07-.42-.25-.35-.49-.34,0-.64,0-.76-.34v-.52c-.53,0-1-.1-1.06.52-.23.31-.35-.18-.57-.18l-.19,1.28c-.27-.24-.54.1-.73.24-.19.45.31.9.65,1.31-.15.28-.91.11-.53.59.26.72,1.4-.07,1.71.72a1.71,1.71,0,0,1-.08,1h-.26c.64.44.42,1.24.34,1.82-.19.35-.49-.1-.72-.17-.16-.41,0-.86-.54-1.1a.51.51,0,0,1-.76-.17c-.07-.45.23-1.14-.26-1.49H87c-.45.62.19,1.38-.53,1.8-.31-.49.26-1.38-.65-1.7a5.13,5.13,0,0,0,0,2.14l-.26.28c-.5-.1-.27-.79-.84-.86-.42.69,0,1.52-.27,2.31l-.72-.62c-.19.34.15,1.21-.46,1.31-.26-.35-.61-1-1.1-.93a2.08,2.08,0,0,1-1,2.21c-.72-.14-.53-.83-.8-1.28-.13.45-.62.11-.71,0,.31.51-.69.85-.2,1.46A7.29,7.29,0,0,0,77.9,76c-.34.18-1-.38-1.26.18-.35-.17-.38.27-.66.1V48.54H72.9V42.83H69.28V79.71a3,3,0,0,1-1,.23V39.34H57.12V68.25H52V39.34H42.12V69.92c-.28.13-.5.16-.56-.2a1.11,1.11,0,0,0-.48.25V42.83H37.47v6.42H34.38V65.76c-.5.06-1,.18-1.37.21-.49-.58-.46.5-1.47.12.05.48-.5.33-.29-.12-.61-.46.38-.37.25-1-.17-.79-.92-.65-1.5-1-.67.21-1-.57-1.59-.57-.15.12-.35.33-.29.53s-.29.29-.46.15a5.28,5.28,0,0,1-1.59.38v.28c-.06.76-.73-.38-1.25-.09l.46.34a2.76,2.76,0,0,1-.5,1c-.37-.51-1.15-.52-1.54-1.06-.28-.37.05-.36.37-.3,0-.09.12-.43-.12-.34l-.34-.34a1.26,1.26,0,0,1,.9-.24.56.56,0,0,1-.31-.29c.36-.38-.68-.07-.63-.49-.53.53-.63-.38-1.13-.27-.23.49-.77.79-.92,1.33-.59.21-.22.92-.66,1.25a.76.76,0,0,0,.5.53,1.61,1.61,0,0,1-.92.07c-.46.11-.17.6-.42.84A2.52,2.52,0,0,0,17.31,66c-.25-.17-.66-.62-1-.6S15,67,16,67a9.51,9.51,0,0,0,1.63,2.5l-.59.22c-.07.22.41.48,0,.57-.07-.53-.92-.21-.91-.68.43-.55-.48-.92-.34-1.4l-.46-.19,0-.19c-.6-.63-1.14-1.82-2.29-1.44.49,1.18-1.32.11-1.76.61.59.62-1,.44-1.12.87-.24.63-1,1.13-1.05,1.74-.13.13-.6.5-.54,0-.89-.73-1.71-1.67-3-1.86-1.95,2.85-.51,2.37-.51,4.81l-.25,0c0-.48-1.19-.82-.62-1.29-.16,0-1-1.44-1.17-.56-.19.43.7.62,0,.83-.08-.2-.42-.25-.38-.49C1.78,70.65,1,69.65,0,69.86A76.14,76.14,0,0,1,75.87,0ZM41.23,31.08H52.9V63.27h3.31V31.08H69.13V27.77H56.21V9.5H52.9V27.77H41.23ZM75.87,152.29A76.15,76.15,0,0,1,2.52,96.58L19.7,77.43,34,91.17V85h5.71V96.79l4.42,4.07v1.93H39.74v7.55l13.7-11.49L67.58,109v-4.58h5.64v4.46h0v3.89l.16.1v0c1,.68,5.85,4.2,5.85,4.2v-8.2h-3.3v-1.3l.64-.69L78,105.36l1.23-1.31V93.86H83.5V98h0v.06c.26.07.58.09.85.14l9.87-11,2.26,2.93,0,0,7.89,10.23,1.75,2.27.47.62.31.41.48.14h0l.69.18L121,107.75v1.51h-2.5v10.31h3V108.35l6.61-8.63.3-.38,3.29-4.3,10.81,13.31v4.59A76.12,76.12,0,0,1,75.87,152.29Zm52.67-39.38H135v-4.17h-6.48Zm-73.32.19h4v-4h-4Zm-4.6,0h4v-4h-4ZM28,108v-4h-4v4Zm-4,.8v4h4v-4Zm4-5.56v-4h-4v4ZM26,94.43,22.1,98.35h5.74A6.33,6.33,0,0,0,26,94.43ZM23.32,108v-4h-4v4Zm-4,.79v4h4v-4Zm4-5.56v-4h-4v4ZM21.59,98.1l4-4a6.62,6.62,0,0,0-4-1.61Zm-4.72-4,4.18,4.18V92.44A6.67,6.67,0,0,0,16.87,94.07Zm-2.2,4.28h5.72l-3.91-3.91A6.32,6.32,0,0,0,14.67,98.35Zm4,9.67v-4h-4v4Zm-4,.8v4h4v-4Zm4-5.56v-4h-4v4ZM54.64,118.7h-4v4h4Zm0-4.82h-4v4h4Zm4.6,4.78h-4v4h4Zm0-4.81h-4v4h4Zm32.24-10.27H98V99.41H91.48Zm-.07,5.06H97.9v-4.18H91.41ZM135,113.79h-6.48V118H135Zm12-14.5c.46,0,.56.56,1.07.52a.33.33,0,0,0,.12.38c.28-.85.55-1.7.8-2.56a2,2,0,0,1-.52.21,3.92,3.92,0,0,1-1.32.2c.26,0,.21.39.43.5C147.35,98.81,146.93,99,146.93,99.29ZM203.57,77h7.53V65.45h13.56V59.06H211.1V54.2H225V47.86H203.57Zm28.74,0h7.53V47.86h-7.53Zm35-10.72L273.26,77h-8.62l-4.9-9.89h-3.85V77h-7.52V47.86H263c6.47,0,10.15,4.29,10.15,9.71A8.84,8.84,0,0,1,267.31,66.32Zm-1.84-8.84a3.36,3.36,0,0,0-3.63-3.28h-5.95v6.56h5.95A3.36,3.36,0,0,0,265.47,57.48Zm38.11,10.33c0-6.61-6.65-8-11.47-9-3.23-.62-5-1.14-5-2.67,0-1.27,1-2.28,3.46-2.28a13.57,13.57,0,0,1,8.22,3l4.12-5.38A17.81,17.81,0,0,0,291,47.42c-7.48,0-11.64,4.25-11.64,9.14,0,6.92,6.74,8.14,11.55,9.1,3.11.66,5,1.32,5,3,0,1.4-1.57,2.49-4.16,2.49a13.17,13.17,0,0,1-9.31-3.85l-4,5.65c2.93,2.8,7,4.63,12.94,4.63C299.24,77.56,303.58,73.67,303.58,67.81ZM316.7,77h7.52V54.42h8.14V47.86H308.52v6.56h8.18Zm56.39-7.31-6.48-3.06a7.06,7.06,0,0,1-6.47,4.24c-4.55,0-7.92-3.67-7.92-8.44S355.59,54,360.14,54a7.06,7.06,0,0,1,6.47,4.24l6.48-3.06c-1.93-3.85-5.69-7.83-12.95-7.83-8.75,0-15.58,6.08-15.58,15.09s6.83,15.09,15.58,15.09A13.66,13.66,0,0,0,373.09,69.73Zm6.52-21.87V77h7.52V65.31h12.12V77h7.52V47.86h-7.52V58.75H387.13V47.86Zm54.64,18.46L440.19,77h-8.61l-4.9-9.89h-3.85V77H415.3V47.86h14.61c6.48,0,10.15,4.29,10.15,9.71A8.83,8.83,0,0,1,434.25,66.32Zm-1.84-8.84a3.36,3.36,0,0,0-3.63-3.28h-5.95v6.56h5.95A3.36,3.36,0,0,0,432.41,57.48ZM447.5,77H455V47.86H447.5Zm39.07-9.23c0-6.61-6.65-8-11.47-9-3.23-.62-5-1.14-5-2.67,0-1.27,1-2.28,3.46-2.28a13.57,13.57,0,0,1,8.22,3l4.12-5.38A17.81,17.81,0,0,0,474,47.42c-7.48,0-11.64,4.25-11.64,9.14,0,6.92,6.74,8.14,11.55,9.1,3.11.66,5,1.32,5,3,0,1.4-1.57,2.49-4.16,2.49a13.17,13.17,0,0,1-9.31-3.85l-4,5.65c2.93,2.8,7,4.63,12.94,4.63C482.23,77.56,486.57,73.67,486.57,67.81ZM499.69,77h7.52V54.42h8.14V47.86H491.51v6.56h8.18Zm22.53,0h7.52V47.86h-7.52ZM555.6,47.86l11,29.18h-8.18L557,72.62H544.83L543.35,77h-8.18l11-29.18ZM555,66.28l-4.11-11.86L546.8,66.28Zm36.62-1.62-11.81-16.8h-7.74V77h7.52V59.41L591.91,77h7.26V47.86H591.6ZM297.32,95.53a5.82,5.82,0,0,1,5.05,2.83l2.91-1.49a8.86,8.86,0,0,0-8-4.38,10.06,10.06,0,1,0,0,20.12,8.88,8.88,0,0,0,8-4.37l-2.91-1.49a5.76,5.76,0,0,1-5.05,2.83c-3.7,0-6.56-2.94-6.56-7S293.62,95.53,297.32,95.53Zm49.52,16.73V92.82h-3.41v8H333.31v-8H329.9v19.44h3.41v-8.48h10.12v8.48Zm26-19.44V104.6c0,4.78,2.77,8,8.43,8s8.4-3.2,8.4-8V92.82h-3.45v11.66c0,3.09-1.72,5.1-4.95,5.1s-5-2-5-5.1V92.82ZM426,104.63l4.75,7.63h-3.94L422.5,105h-3.38v7.26H415.7V92.82h8.55c3.85,0,6.35,2.5,6.35,6.09A5.46,5.46,0,0,1,426,104.63Zm1.1-5.72a3.06,3.06,0,0,0-3.32-3.09h-4.66V102h4.66A3.06,3.06,0,0,0,427.1,98.91Zm38-3.38a5.82,5.82,0,0,1,5,2.83L473,96.87a8.88,8.88,0,0,0-8-4.38,10.06,10.06,0,0,0,0,20.12,8.91,8.91,0,0,0,8-4.37l-2.92-1.49a5.76,5.76,0,0,1-5,2.83c-3.71,0-6.56-2.94-6.56-7S461.37,95.53,465.08,95.53Zm49.52,16.73V92.82h-3.41v8H501.07v-8h-3.42v19.44h3.42v-8.48h10.12v8.48Z"/></g></g></svg>