<?xml version="1.0" encoding="UTF-8"?>
<!-- Generator: Adobe Illustrator 19.2.1, SVG Export Plug-In . SVG Version: 6.00 Build 0)  -->
<svg version="1.1" id="Layer_1" xmlns="http://www.w3.org/2000/svg" xmlns:xlink="http://www.w3.org/1999/xlink" x="0px" y="0px" viewBox="0 0 403 111" style="enable-background:new 0 0 403 111;" xml:space="preserve">
<style type="text/css">
	.st0{fill:#222222;}
</style>
<path class="st0" d="M122.1,81.3h9.7v-14h7.6l9.4,14h11.3l-10.7-15.7c5.6-2.1,9.4-6.5,9.4-13.6v-0.1c0-4.1-1.3-7.6-3.8-10  c-2.9-2.9-7.2-4.5-12.8-4.5h-20.1V81.3L122.1,81.3z M57,11c5.8,0.3,11.3,1.7,16.3,3.9c-1.4,2.7-2.7,5.6-3.8,8.9  c-2.4,7.3-3.2,14.6-3.3,22.2c-0.2,7.4-1.6,13.4-3.8,18.3c-3.2-3.4-5.4-7.5-5.4-13.1h0V11L57,11z M78.1,17.4  c13.8,8.2,23.1,23.2,23.1,40.4c0,5-0.8,9.9-2.3,14.4c-2.9-1.9-6.1-3.5-9.4-5.1c-8.9-4.3-17.9-8.9-17.8-20l0-2h0  c0.1-7.9,1.2-14.3,3-19.7C75.7,22.5,76.8,19.9,78.1,17.4L78.1,17.4z M96.9,77.5c-2,4.4-4.7,8.4-7.9,11.9c-3.2-7.7-9.9-12.4-16.6-17  c-2-1.4-3.9-2.7-5.7-4.1c1.2-2.5,2.3-5.3,3.1-8.4c4,5.7,10.7,9,17.3,12.2C90.6,73.8,94,75.4,96.9,77.5L96.9,77.5z M84.7,93.6  c-4.3,3.7-9.2,6.5-14.7,8.5c-1.6-7.2-5.5-12.4-9.9-17.4c-1.2,1.4-2.4,2.8-3.6,4.2c3.7,4.4,6.9,8.9,8.2,14.8  c-3.4,0.8-6.9,1.2-10.5,1.2c-3.9,0-7.7-0.5-11.3-1.4C45,96,49.6,90.7,54.6,85c2.4-2.7,4.8-5.5,7.1-8.6c-1.5-1.1-2.9-2.3-4.2-3.6  c-1.2,1.6-2.4,3.1-3.6,4.6c-1.7-2-3.3-4.1-4.7-6.4c2.3-2.2,4.3-4.6,5.7-7.6c3.4,5.6,8.9,9.4,14.5,13.3  C75.8,81.4,82.4,85.9,84.7,93.6L84.7,93.6z M37.8,101.8c-5.2-1.9-9.9-4.8-14-8.3c2.7-6.5,8.9-10.6,15-14.6c1.1-0.7,2.2-1.4,3.2-2.1  c-1.1-1.5-2.1-3-3-4.6c-1.1,0.7-2.1,1.4-3.2,2.1c-6.3,4.1-12.6,8.3-16.1,15.1c-3.1-3.4-5.6-7.2-7.6-11.3c2.7-1.7,5.8-3.2,9-4.6  c6.8-3.2,13.7-6.4,17.8-12.3c2.4,8.9,6.9,15,11.6,20.5C45,87.7,40,93.5,37.8,101.8L37.8,101.8z M9.8,73c-1.6-4.8-2.5-9.9-2.5-15.2  c0-17.1,9.1-32.1,22.8-40.3c1.4,2.5,2.6,5.4,3.7,8.6c1.8,5.4,3,12,3,20h0c0,0.2,0,0.4,0,0.6c0-0.1,0,0.1,0,2.3h0  c-0.1,11.1-9.2,15.3-18.2,19.5C15.6,70,12.6,71.4,9.8,73L9.8,73z M35,15.1c5.1-2.3,10.7-3.7,16.6-4.1l0,40.3h0c0,0.3,0,0.5,0,0.7  v1.2h0c0,5.5-2.1,9.6-5.2,12.9c-2.5-5.2-4.1-11.6-4.1-19.9h0c0-8.8-1.3-15.9-3.2-21.8C37.9,20.9,36.5,17.8,35,15.1L35,15.1z   M356.7,81.3h17.1c13.8,0,23.3-9.6,23.3-21.9v-0.1c0-12.4-9.5-21.8-23.3-21.8h-17.1V81.3L356.7,81.3z M373.8,46.1  c7.9,0,13.2,5.5,13.2,13.2v0.1c0,7.8-5.3,13.1-13.2,13.1h-7.5V46.1H373.8L373.8,46.1z M314.7,81.3h33.4v-8.6h-23.8v-9.2H345v-8.6  h-20.7v-8.9h23.5v-8.6h-33.1V81.3L314.7,81.3z M284.3,81.3h9.7v-35h13.4v-8.9h-36.4v8.9h13.4V81.3L284.3,81.3z M242.1,82  c13.5,0,23.4-10.2,23.4-22.7v-0.1c0-12.5-9.7-22.6-23.3-22.6c-13.5,0-23.4,10.2-23.4,22.7v0.1C218.8,71.9,228.5,82,242.1,82  L242.1,82z M242.2,73.1c-7.8,0-13.3-6.3-13.3-13.8v-0.1c0-7.5,5.4-13.7,13.2-13.7c7.8,0,13.3,6.3,13.3,13.8v0.1  C255.4,67,250,73.1,242.2,73.1L242.2,73.1z M188.8,82c13.5,0,23.4-10.2,23.4-22.7v-0.1c0-12.5-9.7-22.6-23.3-22.6  c-13.5,0-23.4,10.2-23.4,22.7v0.1C165.5,71.9,175.2,82,188.8,82L188.8,82z M188.9,73.1c-7.8,0-13.3-6.3-13.3-13.8v-0.1  c0-7.5,5.4-13.7,13.2-13.7c7.8,0,13.3,6.3,13.3,13.8v0.1C202.1,67,196.7,73.1,188.9,73.1L188.9,73.1z M131.8,58.7V46.1h9.6  c4.7,0,7.6,2.1,7.6,6.3v0.1c0,3.7-2.7,6.2-7.4,6.2H131.8L131.8,58.7z"/>
</svg>